<?xml version="1.0" encoding="utf-8"?>
<!-- Generator: Adobe Illustrator 25.0.1, SVG Export Plug-In . SVG Version: 6.00 Build 0)  -->
<svg version="1.1" xmlns="http://www.w3.org/2000/svg" xmlns:xlink="http://www.w3.org/1999/xlink" x="0px" y="0px"
	 viewBox="0 0 60 60" style="enable-background:new 0 0 60 60;" xml:space="preserve">
<style type="text/css">
	.st0{fill:none;stroke:#B0CAEC;stroke-miterlimit:10;}
	.st1{fill:#B0CAEC;}
</style>
<g id="frame">
	<rect x="0.53" y="0.53" class="st0" width="59.02" height="59.02"/>
</g>
<g id="round1">
	<circle class="st1" cx="11.34" cy="55.15" r="0.77"/>
</g>
<g id="round2">
	<circle class="st1" cx="21.37" cy="55.15" r="0.77"/>
</g>
<g id="round3">
	<circle class="st1" cx="24.9" cy="55.15" r="0.77"/>
</g>
<g id="round4">
	<circle class="st1" cx="28.43" cy="55.15" r="0.77"/>
</g>
<g id="round5">
	<circle class="st1" cx="31.97" cy="55.15" r="0.77"/>
</g>
<g id="round6">
	<circle class="st1" cx="41.5" cy="55.15" r="0.77"/>
</g>
<g id="outer_dum">
	<circle class="st0" cx="23.96" cy="12.64" r="9.94"/>
</g>
<g id="inner_dum">
	<circle class="st0" cx="24.02" cy="12.79" r="3.15"/>
</g>
<g id="head">
	<path class="st0" d="M19.09,33.68c0,0.33-0.03,0.66-0.09,0.98c-0.46,2.42-2.59,4.26-5.14,4.26c-2.89,0-5.23-2.34-5.23-5.23
		s2.34-5.23,5.23-5.23S19.09,30.79,19.09,33.68z"/>
</g>
<g id="body">
	<path class="st0" d="M21.72,22.71c-0.03,4.32-0.06,8.63-0.09,12.95c0.11,0.63,0.4,1.76,1.28,2.83c0.37,0.45,0.77,0.79,1.11,1.03
		c6.75,0,13.5,0,20.26,0c0.48,0.31,0.96,0.63,1.45,0.94c0.48,3.89,0.96,7.78,1.45,11.67c-0.08,1.78,1.42,3.14,2.89,3
		c1.45-0.14,2.67-1.71,2.3-3.43c-0.4-5.58-0.79-11.15-1.19-16.73c-0.01-0.37-0.1-1.39-0.85-2.32c-1.17-1.44-2.96-1.42-3.19-1.42
		c-2.37,0.07-3.19,0.35-5.65,0.13c-1.24-0.11-2.22-0.4-2.81-0.61c-1.15-0.79-2.9-1.73-5.2-1.96c-0.3-0.03-0.52-0.04-1.28-0.06
		c-1.38-0.05-3.35-0.11-5.81-0.16c-0.05-2.05-0.11-4.1-0.16-6.14c-0.76,0.05-1.51,0.09-2.27,0.14
		C23.21,22.62,22.47,22.67,21.72,22.71z"/>
</g>
<g id="레이어_9">
	<path class="st0" d="M19.09,35.23c0,0,1.44,0.43,2.57-0.94"/>
</g>
<g id="bench_top">
	<path class="st0" d="M8.62,45.3h5.79h29.02c0,0,0.17-5.79-2.89-5.79H12.02c0,0-2.38,0-2.89,2.89L8.62,45.3z"/>
	<polyline class="st0" points="35.26,56.11 35.26,45.3 38.23,45.3 38.23,56.11 	"/>
	<polyline class="st0" points="14.4,56.11 14.4,45.3 17.55,45.3 17.55,56.11 	"/>
</g>
<g id="bench_bottom">
</g>
</svg>
